<?xml version="1.0" encoding="UTF-8"?>
<!DOCTYPE svg PUBLIC "-//W3C//DTD SVG 1.1//EN" "http://www.w3.org/Graphics/SVG/1.1/DTD/svg11.dtd">
<svg xmlns="http://www.w3.org/2000/svg" version="1.1" width="835px" height="694px" style="shape-rendering:geometricPrecision; text-rendering:geometricPrecision; image-rendering:optimizeQuality; fill-rule:evenodd; clip-rule:evenodd" xmlns:xlink="http://www.w3.org/1999/xlink">
<g><path style="opacity:0.993" fill="#e5e3e0" d="M 803.5,181.5 C 803.631,182.239 803.464,182.906 803,183.5C 793.829,181.214 785.329,182.714 777.5,188C 756.591,208.386 747.757,233.22 751,262.5C 752.831,273.836 756.497,284.503 762,294.5C 775.659,310.874 791.492,313.374 809.5,302C 821.453,290.263 828.786,276.096 831.5,259.5C 832.5,259.5 833.5,259.5 834.5,259.5C 834.5,261.167 834.5,262.833 834.5,264.5C 831.613,290.211 818.28,308.044 794.5,318C 790.855,318.719 787.188,319.219 783.5,319.5C 767.528,317.706 755.694,309.706 748,295.5C 743.624,287.761 740.124,279.761 737.5,271.5C 736.327,264.139 734.827,256.806 733,249.5C 729.696,230.133 733.03,212.133 743,195.5C 746.064,191.333 749.564,187.667 753.5,184.5C 756.701,183.069 759.701,181.403 762.5,179.5C 776.421,175.133 790.088,175.799 803.5,181.5 Z"/></g>
<g><path style="opacity:0.999" fill="#d4d4d3" d="M 803.5,181.5 C 815.366,185.865 823.866,193.865 829,205.5C 831.155,211.53 832.989,217.53 834.5,223.5C 834.5,235.5 834.5,247.5 834.5,259.5C 833.5,259.5 832.5,259.5 831.5,259.5C 828.786,276.096 821.453,290.263 809.5,302C 791.492,313.374 775.659,310.874 762,294.5C 756.497,284.503 752.831,273.836 751,262.5C 747.757,233.22 756.591,208.386 777.5,188C 785.329,182.714 793.829,181.214 803,183.5C 803.464,182.906 803.631,182.239 803.5,181.5 Z"/></g>
<g><path style="opacity:1" fill="#d34a0b" d="M 753.5,184.5 C 749.564,187.667 746.064,191.333 743,195.5C 733.03,212.133 729.696,230.133 733,249.5C 734.827,256.806 736.327,264.139 737.5,271.5C 723.228,256.389 709.061,241.056 695,225.5C 690.744,221.33 689.077,216.33 690,210.5C 709.79,198.351 730.956,189.685 753.5,184.5 Z"/></g>
<g><path style="opacity:1" fill="#fcfcfc" d="M 808.5,191.5 C 808.899,199.935 804.899,203.768 796.5,203C 791.945,199.666 790.278,195.166 791.5,189.5C 781.408,193.634 776.408,201.3 776.5,212.5C 776.165,222.834 780.665,230.167 790,234.5C 793.989,231.497 797.489,231.997 800.5,236C 813.811,233.503 820.477,225.336 820.5,211.5C 820.246,206 818.579,201 815.5,196.5C 815.517,194.972 816.184,194.472 817.5,195C 824.304,204.006 828.47,214.172 830,225.5C 831.865,241.061 829.865,256.061 824,270.5C 819.684,283.146 811.518,292.313 799.5,298C 781.289,302.646 769.122,296.146 763,278.5C 750.256,244.882 756.422,215.382 781.5,190C 791.183,184.064 800.849,184.064 810.5,190C 809.584,190.278 808.918,190.778 808.5,191.5 Z"/></g>
<g><path style="opacity:1" fill="#060505" d="M 808.5,191.5 C 811.669,192.002 814.002,193.669 815.5,196.5C 818.579,201 820.246,206 820.5,211.5C 820.477,225.336 813.811,233.503 800.5,236C 797.489,231.997 793.989,231.497 790,234.5C 780.665,230.167 776.165,222.834 776.5,212.5C 776.408,201.3 781.408,193.634 791.5,189.5C 790.278,195.166 791.945,199.666 796.5,203C 804.899,203.768 808.899,199.935 808.5,191.5 Z"/></g>
<g><path style="opacity:1" fill="#f3efef" d="M 765.5,263.5 C 772.871,266.347 780.205,269.513 787.5,273C 792.833,273.667 798.167,273.667 803.5,273C 807.189,271.104 811.022,269.604 815,268.5C 818.821,269.829 819.488,272.163 817,275.5C 812.395,282.527 806.561,288.36 799.5,293C 787.934,297.295 779.101,294.129 773,283.5C 768.624,277.539 766.124,270.873 765.5,263.5 Z"/></g>
<g><path style="opacity:0.995" fill="#010100" d="M 107.5,533.5 C 108.671,534.345 110.005,535.011 111.5,535.5C 129.806,544.098 149.139,548.764 169.5,549.5C 169.599,546.763 169.265,544.096 168.5,541.5C 165.103,523.347 163.769,505.014 164.5,486.5C 162.449,459.473 171.116,436.64 190.5,418C 207.665,406.954 225.665,405.621 244.5,414C 255.642,422.762 263.475,433.928 268,447.5C 269.864,452.091 271.53,456.757 273,461.5C 276.351,476.904 280.018,492.237 284,507.5C 285.645,515.08 286.479,522.747 286.5,530.5C 278.621,527.61 272.621,522.61 268.5,515.5C 268.244,513.208 268.577,511.041 269.5,509C 267.648,508.227 266.314,508.727 265.5,510.5C 247.665,520.176 240.498,535.176 244,555.5C 249.524,570.026 259.024,581.193 272.5,589C 299.357,603.563 328.024,612.396 358.5,615.5C 363.616,616.806 368.949,617.473 374.5,617.5C 440.818,620.094 506.485,614.761 571.5,601.5C 570.716,612.157 570.05,622.823 569.5,633.5C 635.283,614.518 696.783,586.518 754,549.5C 754.5,540.173 754.666,530.839 754.5,521.5C 755.833,520.833 757.167,520.167 758.5,519.5C 775.958,525.252 792.625,532.919 808.5,542.5C 817.233,548.732 824.4,556.399 830,565.5C 833.333,575.5 833.333,585.5 830,595.5C 823.336,607.835 814.169,618.002 802.5,626C 772.462,644.949 740.129,658.949 705.5,668C 649.87,681.862 593.537,690.362 536.5,693.5C 500.167,693.5 463.833,693.5 427.5,693.5C 382.108,690.723 336.775,686.056 291.5,679.5C 281.74,683.276 271.74,686.443 261.5,689C 253.167,689.667 244.833,689.667 236.5,689C 229.388,687.914 222.388,686.414 215.5,684.5C 221.824,665.242 226.657,645.576 230,625.5C 230.91,608.461 230.577,591.461 229,574.5C 228.516,595.606 226.85,616.606 224,637.5C 221.522,648.753 217.522,659.42 212,669.5C 203.077,675.989 195.744,674.322 190,664.5C 187.823,659.948 185.656,655.448 183.5,651C 155.476,641.323 129.476,627.99 105.5,611C 99.9822,606.316 94.9822,601.149 90.5,595.5C 78.9082,600.051 66.9082,601.551 54.5,600C 53.9781,599.439 53.6448,598.772 53.5,598C 57.3236,589.869 59.4902,581.369 60,572.5C 58.1544,579.856 54.9877,586.522 50.5,592.5C 47.5369,595.658 44.2036,596.158 40.5,594C 29.3097,584.122 21.8097,571.955 18,557.5C 12.0966,529.818 10.0966,501.818 12,473.5C 11,472.167 10,470.833 9,469.5C 7.34155,466.023 6.17488,462.357 5.5,458.5C 6.44907,447.135 7.94907,435.801 10,424.5C 18.9461,402.65 30.6128,400.984 45,419.5C 52.302,432.78 57.9687,446.78 62,461.5C 66.1446,478.41 69.8113,495.41 73,512.5C 83.6362,520.98 95.1362,527.98 107.5,533.5 Z M 62.5,558.5 C 63.5953,561.717 63.4287,565.05 62,568.5C 61.8281,565.174 61.9947,561.841 62.5,558.5 Z"/></g>
<g><path style="opacity:1" fill="#f9f0ef" d="M 758.5,519.5 C 757.167,520.167 755.833,520.833 754.5,521.5C 753.909,503.629 752.909,485.629 751.5,467.5C 711.938,490.617 670.271,508.784 626.5,522C 606.339,528.292 586.006,534.125 565.5,539.5C 570.139,559.889 572.139,580.556 571.5,601.5C 506.485,614.761 440.818,620.094 374.5,617.5C 369.402,616.043 364.069,615.376 358.5,615.5C 328.024,612.396 299.357,603.563 272.5,589C 259.024,581.193 249.524,570.026 244,555.5C 240.498,535.176 247.665,520.176 265.5,510.5C 267.028,511.802 268.028,513.469 268.5,515.5C 272.621,522.61 278.621,527.61 286.5,530.5C 288.887,532.103 291.554,533.103 294.5,533.5C 304.841,537.346 315.507,540.513 326.5,543C 361.237,549.005 396.237,551.339 431.5,550C 532.384,546.598 627.717,522.431 717.5,477.5C 737.587,468.234 756.254,456.734 773.5,443C 777.037,439.631 780.371,436.131 783.5,432.5C 783.5,432.167 783.5,431.833 783.5,431.5C 785.485,429.576 787.485,427.576 789.5,425.5C 806.756,433.346 812.589,446.346 807,464.5C 795.493,486.779 779.326,505.113 758.5,519.5 Z"/></g>
<g><path style="opacity:1" fill="#8e3207" d="M 717.5,477.5 C 627.717,522.431 532.384,546.598 431.5,550C 396.237,551.339 361.237,549.005 326.5,543C 315.507,540.513 304.841,537.346 294.5,533.5C 290.358,522.073 288.358,510.239 288.5,498C 289.225,484.844 289.725,471.678 290,458.5C 290.94,455.558 292.94,454.225 296,454.5C 300.308,454.824 304.141,456.324 307.5,459C 319.804,472.304 332.47,485.304 345.5,498C 369.412,517.199 396.745,527.865 427.5,530C 471.018,532.157 514.351,529.49 557.5,522C 577.333,518.417 597,514.083 616.5,509C 650.288,498.968 683.955,488.468 717.5,477.5 Z"/></g>
<g><path style="opacity:1" fill="#ae3c07" d="M 356.5,-0.5 C 376.167,-0.5 395.833,-0.5 415.5,-0.5C 499.812,9.65752 557.978,53.9909 590,132.5C 595.861,148.559 600.861,164.892 605,181.5C 605.785,183.286 606.951,184.786 608.5,186C 629.303,192.266 649.47,200.1 669,209.5C 684.495,201.791 699.995,194.291 715.5,187C 730.74,181.773 746.406,179.273 762.5,179.5C 759.701,181.403 756.701,183.069 753.5,184.5C 730.956,189.685 709.79,198.351 690,210.5C 689.077,216.33 690.744,221.33 695,225.5C 709.061,241.056 723.228,256.389 737.5,271.5C 740.124,279.761 743.624,287.761 748,295.5C 755.694,309.706 767.528,317.706 783.5,319.5C 791.07,345.959 793.57,372.959 791,400.5C 789.206,411.04 786.706,421.373 783.5,431.5C 782.167,431.833 782.167,432.167 783.5,432.5C 780.371,436.131 777.037,439.631 773.5,443C 756.254,456.734 737.587,468.234 717.5,477.5C 683.955,488.468 650.288,498.968 616.5,509C 597,514.083 577.333,518.417 557.5,522C 514.351,529.49 471.018,532.157 427.5,530C 396.745,527.865 369.412,517.199 345.5,498C 332.47,485.304 319.804,472.304 307.5,459C 304.141,456.324 300.308,454.824 296,454.5C 292.94,454.225 290.94,455.558 290,458.5C 289.725,471.678 289.225,484.844 288.5,498C 288.358,510.239 290.358,522.073 294.5,533.5C 291.554,533.103 288.887,532.103 286.5,530.5C 286.479,522.747 285.645,515.08 284,507.5C 280.018,492.237 276.351,476.904 273,461.5C 271.53,456.757 269.864,452.091 268,447.5C 263.475,433.928 255.642,422.762 244.5,414C 225.665,405.621 207.665,406.954 190.5,418C 171.116,436.64 162.449,459.473 164.5,486.5C 163.833,494.343 163.167,502.343 162.5,510.5C 140.197,506.672 117.864,502.838 95.5,499C 86.6148,496.558 78.9481,492.058 72.5,485.5C 69.176,497.461 72.176,507.294 81.5,515C 90.9014,521.396 100.568,527.396 110.5,533C 109.552,533.483 108.552,533.649 107.5,533.5C 95.1362,527.98 83.6362,520.98 73,512.5C 69.8113,495.41 66.1446,478.41 62,461.5C 57.9687,446.78 52.302,432.78 45,419.5C 30.6128,400.984 18.9461,402.65 10,424.5C 7.94907,435.801 6.44907,447.135 5.5,458.5C 3.88284,456.879 2.71618,454.879 2,452.5C 1.68937,448.91 0.856042,445.577 -0.5,442.5C -0.5,427.167 -0.5,411.833 -0.5,396.5C 0.82342,394.238 2.15675,391.904 3.5,389.5C 9.18351,383.982 15.0168,378.649 21,373.5C 21.9484,362.452 23.2817,351.452 25,340.5C 26.0339,337.014 27.3672,333.681 29,330.5C 43.6626,317.171 57.9959,303.504 72,289.5C 76.1948,283.768 79.8615,277.768 83,271.5C 88.6661,246.501 94.3327,221.501 100,196.5C 109.694,156.117 125.694,118.451 148,83.5C 153.972,75.6953 160.472,68.362 167.5,61.5C 173.199,58.3192 178.865,55.1525 184.5,52C 207.67,42.2906 230.67,32.6239 253.5,23C 287.091,11.5179 321.424,3.68454 356.5,-0.5 Z"/></g>
<g><path style="opacity:1" fill="#050302" d="M 737.5,328.5 C 738.822,328.33 739.989,328.663 741,329.5C 741.95,341.907 741.45,354.24 739.5,366.5C 738.528,362.533 737.695,358.533 737,354.5C 736.167,353.5 735.333,352.5 734.5,351.5C 733.914,351.709 733.414,352.043 733,352.5C 730.838,383.676 722.505,413.009 708,440.5C 680.432,481.698 642.599,496.198 594.5,484C 550.885,469.065 515.052,443.232 487,406.5C 486.056,407.263 485.556,408.263 485.5,409.5C 486.064,411.819 486.564,414.153 487,416.5C 490.819,425.13 494.819,433.464 499,441.5C 485.509,429.357 475.175,415.024 468,398.5C 465.903,392.529 467.903,389.529 474,389.5C 495.243,395.853 516.743,401.353 538.5,406C 584.03,412.353 627.697,406.02 669.5,387C 697.226,373.445 719.892,353.945 737.5,328.5 Z"/></g>
<g><path style="opacity:1" fill="#fbfbfb" d="M 711.5,366.5 C 712.693,366.97 713.36,367.97 713.5,369.5C 711.856,384.065 708.189,398.065 702.5,411.5C 651.74,449.695 597.74,454.861 540.5,427C 530.162,421.166 520.162,414.833 510.5,408C 575.929,423.94 637.262,414.273 694.5,379C 700.59,375.301 706.257,371.134 711.5,366.5 Z"/></g>
<g><path style="opacity:1" fill="#d34909" d="M 366.5,233.5 C 314.101,246.956 294.601,279.956 308,332.5C 312.642,349.286 320.142,364.62 330.5,378.5C 327.76,393.796 318.593,401.796 303,402.5C 296.343,402.168 289.843,401.002 283.5,399C 272.167,393.333 260.833,387.667 249.5,382C 240.412,378.86 231.412,375.527 222.5,372C 202.539,367.774 186.705,373.941 175,390.5C 167.464,402.928 161.964,416.261 158.5,430.5C 129.031,418.668 98.3641,412.668 66.5,412.5C 65.5682,414.795 64.7348,417.129 64,419.5C 61.6814,421.936 59.1814,422.103 56.5,420C 51.0999,412.931 44.7665,406.931 37.5,402C 24.8918,399.887 15.3918,404.387 9,415.5C 7.65002,406.848 6.48335,398.181 5.5,389.5C 18.08,388.763 25.58,382.096 28,369.5C 28.6358,362.109 29.6358,354.776 31,347.5C 32.0682,342.95 33.9015,338.783 36.5,335C 73.3086,339.518 109.975,337.851 146.5,330C 170.294,305.853 198.628,289.853 231.5,282C 242.285,280.975 252.951,281.642 263.5,284C 265.649,285.164 267.815,286.33 270,287.5C 268.789,275.769 272.955,266.603 282.5,260C 308.639,247.842 335.806,238.676 364,232.5C 365.07,232.528 365.903,232.861 366.5,233.5 Z"/></g>
<g><path style="opacity:1" fill="#e5e3e0" d="M 384.5,229.5 C 392.171,230.123 399.504,231.123 406.5,232.5C 409.115,231.731 411.781,231.397 414.5,231.5C 413.737,232.268 412.737,232.768 411.5,233C 417.262,235.048 422.596,237.881 427.5,241.5C 453.624,264.415 468.124,293.415 471,328.5C 471.5,336.159 471.666,343.826 471.5,351.5C 470.991,376.351 460.991,396.518 441.5,412C 420.085,425.401 397.752,427.068 374.5,417C 356.551,407.883 341.885,395.049 330.5,378.5C 320.142,364.62 312.642,349.286 308,332.5C 294.601,279.956 314.101,246.956 366.5,233.5C 372.549,232.002 378.549,230.668 384.5,229.5 Z"/></g>
<g><path style="opacity:1" fill="#d3d4d3" d="M 379.5,236.5 C 400.399,236.613 418.399,243.946 433.5,258.5C 448.845,273.982 458.012,292.648 461,314.5C 465.047,338.514 461.381,361.181 450,382.5C 430.009,407.706 405.176,413.873 375.5,401C 363.287,393.12 353.453,382.954 346,370.5C 324.017,336.816 321.683,301.816 339,265.5C 348.811,250.5 362.311,240.833 379.5,236.5 Z"/></g>
<g><path style="opacity:1" fill="#fcfcfc" d="M 376.5,242.5 C 404.521,241.018 425.687,252.351 440,276.5C 455.727,304.16 457.727,332.826 446,362.5C 433.835,385.997 414.669,395.164 388.5,390C 372.491,384.998 360.324,375.165 352,360.5C 338.73,337.882 333.73,313.549 337,287.5C 340.634,271.198 349.134,258.031 362.5,248C 366.962,245.255 371.628,243.422 376.5,242.5 Z"/></g>
<g><path style="opacity:1" fill="#f3f0f0" d="M 364.5,344.5 C 374.331,346.609 383.998,349.442 393.5,353C 400.167,353.667 406.833,353.667 413.5,353C 419.604,351.114 425.604,348.948 431.5,346.5C 436.463,347.636 439.13,350.803 439.5,356C 434.029,369.757 424.029,378.424 409.5,382C 393.223,384.646 379.389,380.146 368,368.5C 363.044,361.935 361.044,354.602 362,346.5C 362.995,345.934 363.828,345.267 364.5,344.5 Z"/></g>
<g><path style="opacity:1" fill="#030303" d="M 380.5,249.5 C 381.552,249.351 382.552,249.517 383.5,250C 379.322,255.605 379.655,260.938 384.5,266C 392.042,270.014 398.876,269.181 405,263.5C 405.947,258.97 405.447,254.636 403.5,250.5C 415.955,254.124 424.122,262.458 428,275.5C 430.603,294.127 423.769,307.961 407.5,317C 404.906,317.449 402.906,316.449 401.5,314C 396.293,312.391 393.293,314.224 392.5,319.5C 373.715,318.87 361.882,309.537 357,291.5C 354.774,271.598 362.608,257.598 380.5,249.5 Z"/></g>
<g><path style="opacity:1" fill="#d34908" d="M 471.5,351.5 C 471.666,343.826 471.5,336.159 471,328.5C 468.124,293.415 453.624,264.415 427.5,241.5C 428.681,239.933 430.347,239.099 432.5,239C 480.701,229.933 529.034,221.6 577.5,214C 623.882,210.342 663.049,225.175 695,258.5C 713.498,282.702 711.331,304.868 688.5,325C 661.624,343.599 631.957,355.265 599.5,360C 556.261,365.093 513.595,362.259 471.5,351.5 Z"/></g>
<g><path style="opacity:1" fill="#e9e7e7" d="M 182.5,77.5 C 186.514,77.3345 190.514,77.5012 194.5,78C 197.548,78.6064 200.048,80.1064 202,82.5C 206.079,91.8112 209.079,101.478 211,111.5C 214.267,128.366 216.6,145.366 218,162.5C 218.667,193.167 218.667,223.833 218,254.5C 217.215,256.286 216.049,257.786 214.5,259C 181.95,272.843 147.95,279.176 112.5,278C 108.908,274.984 106.742,271.151 106,266.5C 103.925,218.608 112.925,172.941 133,129.5C 141.507,112.66 152.674,97.8271 166.5,85C 171.557,81.6347 176.89,79.1347 182.5,77.5 Z"/></g>
<g><path style="opacity:1" fill="#fefefe" d="M 199.5,92.5 C 201.411,92.5743 202.578,93.5743 203,95.5C 210.372,125.369 213.872,155.702 213.5,186.5C 208.452,186.127 203.785,187.294 199.5,190C 196.667,192.833 193.833,195.667 191,198.5C 185.603,211.485 182.77,224.985 182.5,239C 168.11,243.911 153.444,247.744 138.5,250.5C 136.571,250.46 134.738,250.127 133,249.5C 132.478,216.299 137.478,183.966 148,152.5C 157.501,125.839 174.667,105.839 199.5,92.5 Z"/></g>
<g><path style="opacity:1" fill="#e9e8e8" d="M 414.5,231.5 C 411.781,231.397 409.115,231.731 406.5,232.5C 399.504,231.123 392.171,230.123 384.5,229.5C 355.698,228.095 328.031,232.928 301.5,244C 293.173,244.5 284.84,244.666 276.5,244.5C 257.78,190.385 244.447,134.885 236.5,78C 236.398,67.5328 240.732,59.5328 249.5,54C 320.542,19.8463 394.875,9.84627 472.5,24C 501.138,32.6439 524.971,48.4773 544,71.5C 569.956,105.444 586.122,143.778 592.5,186.5C 592.61,188.374 591.944,189.874 590.5,191C 578.8,197.682 566.467,203.015 553.5,207C 507.665,217.906 461.332,226.072 414.5,231.5 Z"/></g>
<g><path style="opacity:1" fill="#fefdfd" d="M 480.5,180.5 C 492.905,179.116 504.238,181.782 514.5,188.5C 497.171,189.989 479.838,190.322 462.5,189.5C 468.045,185.394 474.045,182.394 480.5,180.5 Z"/></g>
<g><path style="opacity:1" fill="#fefefe" d="M 316.5,60.5 C 329.934,59.9556 343.267,60.7889 356.5,63C 379.146,68.3113 391.979,82.478 395,105.5C 395.667,112.167 395.667,118.833 395,125.5C 393.811,135.561 392.311,145.561 390.5,155.5C 380.165,155.582 370.165,157.415 360.5,161C 344.797,168.559 336.13,181.059 334.5,198.5C 317.941,202.722 301.275,206.388 284.5,209.5C 283.947,200.557 281.447,192.224 277,184.5C 272.818,180.075 267.652,178.408 261.5,179.5C 253.598,145.88 247.598,111.88 243.5,77.5C 267.483,69.9414 291.817,64.2747 316.5,60.5 Z"/></g>
<g><path style="opacity:1" fill="#fefefe" d="M 446.5,41.5 C 457.842,40.646 468.842,42.146 479.5,46C 505.558,57.6293 526.392,75.4627 542,99.5C 557.018,123.383 567.851,149.05 574.5,176.5C 574.392,177.442 574.059,178.275 573.5,179C 559.284,182.625 544.95,184.792 530.5,185.5C 518.612,167.733 501.945,160.566 480.5,164C 466.21,166.305 454.543,172.972 445.5,184C 444.668,184.688 444.002,184.521 443.5,183.5C 435.705,152.811 430.705,121.645 428.5,90C 427.572,74.0345 431.072,59.2011 439,45.5C 441.417,43.8724 443.917,42.539 446.5,41.5 Z"/></g>
<g><path style="opacity:1" fill="#d24908" d="M 337.5,9.5 C 341.182,9.3347 344.848,9.50137 348.5,10C 316.356,14.2733 285.356,22.6066 255.5,35C 242.58,41.2606 231.413,49.7606 222,60.5C 220.768,65.7207 220.101,71.0541 220,76.5C 218.719,71.8822 216.552,67.7156 213.5,64C 206.572,59.3812 198.906,57.3812 190.5,58C 196.63,54.2583 203.296,52.5917 210.5,53C 227.651,39.8849 246.651,30.2183 267.5,24C 290.54,17.2355 313.874,12.4022 337.5,9.5 Z"/></g>
<g><path style="opacity:1" fill="#f6f6f6" d="M 29.5,478.5 C 34.5665,479.712 38.3999,482.712 41,487.5C 51.0536,509.096 54.3869,531.762 51,555.5C 50.0694,562.311 47.236,568.144 42.5,573C 38.3283,573.868 35.1617,572.368 33,568.5C 22.1161,544.984 18.1161,520.317 21,494.5C 22.072,488.116 24.9053,482.783 29.5,478.5 Z"/></g>
<g><path style="opacity:1" fill="#d3d4d3" d="M 28.5,484.5 C 32.2727,483.822 35.106,485.156 37,488.5C 41.2635,496.346 43.7635,504.679 44.5,513.5C 38.396,513.468 33.896,516.135 31,521.5C 29.3333,526.167 27.6667,530.833 26,535.5C 23.858,521.901 23.1914,508.234 24,494.5C 25.2236,490.977 26.7236,487.644 28.5,484.5 Z"/></g>
<g><path style="opacity:1" fill="#8e3105" d="M 164.5,486.5 C 163.769,505.014 165.103,523.347 168.5,541.5C 167.566,542.568 167.232,543.901 167.5,545.5C 148.42,545.521 130.254,541.521 113,533.5C 111.97,533.836 111.47,534.503 111.5,535.5C 110.005,535.011 108.671,534.345 107.5,533.5C 108.552,533.649 109.552,533.483 110.5,533C 100.568,527.396 90.9014,521.396 81.5,515C 72.176,507.294 69.176,497.461 72.5,485.5C 78.9481,492.058 86.6148,496.558 95.5,499C 117.864,502.838 140.197,506.672 162.5,510.5C 163.167,502.343 163.833,494.343 164.5,486.5 Z"/></g>
<g><path style="opacity:1" fill="#8f8b87" d="M 268.5,515.5 C 268.028,513.469 267.028,511.802 265.5,510.5C 266.314,508.727 267.648,508.227 269.5,509C 268.577,511.041 268.244,513.208 268.5,515.5 Z"/></g>
<g><path style="opacity:1" fill="#f9f8f8" d="M 193.5,518.5 C 196.263,518.744 198.429,520.077 200,522.5C 207.852,541.71 210.685,561.71 208.5,582.5C 210.417,601.184 207.917,619.184 201,636.5C 198.01,642.006 194.343,642.673 190,638.5C 184.202,623.388 180.869,607.722 180,591.5C 177.575,568.063 180.575,545.396 189,523.5C 190.059,521.341 191.559,519.674 193.5,518.5 Z"/></g>
<g><path style="opacity:1" fill="#d5d5d4" d="M 192.5,526.5 C 196.575,526.399 199.075,528.399 200,532.5C 202.521,543.691 203.688,555.024 203.5,566.5C 199.406,565.705 196.239,567.038 194,570.5C 190.169,577.479 187.502,584.812 186,592.5C 184.744,573.039 185.744,553.706 189,534.5C 189.921,531.664 191.088,528.998 192.5,526.5 Z"/></g>
<g><path style="opacity:1" fill="#a33907" d="M 168.5,541.5 C 169.265,544.096 169.599,546.763 169.5,549.5C 149.139,548.764 129.806,544.098 111.5,535.5C 111.47,534.503 111.97,533.836 113,533.5C 130.254,541.521 148.42,545.521 167.5,545.5C 167.232,543.901 167.566,542.568 168.5,541.5 Z"/></g>
<g><path style="opacity:1" fill="#c7c4bb" d="M 754.5,521.5 C 754.666,530.839 754.5,540.173 754,549.5C 696.783,586.518 635.283,614.518 569.5,633.5C 570.05,622.823 570.716,612.157 571.5,601.5C 572.139,580.556 570.139,559.889 565.5,539.5C 586.006,534.125 606.339,528.292 626.5,522C 670.271,508.784 711.938,490.617 751.5,467.5C 752.909,485.629 753.909,503.629 754.5,521.5 Z"/></g>
<g><path style="opacity:1" fill="#e4e2df" d="M 748.5,490.5 C 749.494,499.986 749.827,509.652 749.5,519.5C 748.331,522.183 746.331,523.349 743.5,523C 739.665,518.231 739.665,513.564 743.5,509C 745.367,508.289 746.867,508.789 748,510.5C 748.5,503.842 748.666,497.175 748.5,490.5 Z"/></g>
<g><path style="opacity:1" fill="#fefefe" d="M 748.5,490.5 C 748.666,497.175 748.5,503.842 748,510.5C 746.867,508.789 745.367,508.289 743.5,509C 739.665,513.564 739.665,518.231 743.5,523C 746.331,523.349 748.331,522.183 749.5,519.5C 749.831,527.528 749.498,535.528 748.5,543.5C 696.586,576.287 640.92,600.621 581.5,616.5C 580.935,597.999 580.268,579.499 579.5,561C 579.512,555.92 579.846,550.92 580.5,546C 620.076,537.215 658.076,523.882 694.5,506C 712.136,497.182 729.802,488.349 747.5,479.5C 748.489,483.107 748.823,486.774 748.5,490.5 Z"/></g>
<g><path style="opacity:1" fill="#d4d1ca" d="M 585.5,570.5 C 589.17,570.327 591.67,571.993 593,575.5C 594.151,579.829 593.318,583.662 590.5,587C 586.525,588.379 583.691,587.213 582,583.5C 580.668,578.415 581.835,574.081 585.5,570.5 Z"/></g>
<g><path style="opacity:1" fill="#fcfcfb" d="M 585.5,573.5 C 587.722,573.178 589.556,573.845 591,575.5C 591.667,578.5 591.667,581.5 591,584.5C 588.321,587.172 585.988,586.838 584,583.5C 583.153,579.928 583.653,576.594 585.5,573.5 Z"/></g>
<g><path style="opacity:1" fill="#9e9897" d="M 358.5,615.5 C 364.069,615.376 369.402,616.043 374.5,617.5C 368.949,617.473 363.616,616.806 358.5,615.5 Z"/></g>
</svg>
