<?xml version="1.0" encoding="UTF-8"?>
<!DOCTYPE svg PUBLIC "-//W3C//DTD SVG 1.1//EN" "http://www.w3.org/Graphics/SVG/1.1/DTD/svg11.dtd">
<svg xmlns="http://www.w3.org/2000/svg" version="1.1" width="1297px" height="1167px" style="shape-rendering:geometricPrecision; text-rendering:geometricPrecision; image-rendering:optimizeQuality; fill-rule:evenodd; clip-rule:evenodd" xmlns:xlink="http://www.w3.org/1999/xlink">
<g><path style="opacity:0.995" fill="#03a678" d="M 1128.5,326.5 C 1109,360.838 1090,395.505 1071.5,430.5C 1044.17,479.833 1016.83,529.167 989.5,578.5C 983.301,559.755 973.301,543.422 959.5,529.5C 989.012,475.648 1018.68,421.815 1048.5,368C 1010.27,328.325 992.77,280.825 996,225.5C 997.011,217.445 998.011,209.445 999,201.5C 964.914,182.54 930.747,163.706 896.5,145C 895.5,144.333 894.5,144.333 893.5,145C 846.569,188.306 791.569,204.306 728.5,193C 697.694,248.78 667.027,304.614 636.5,360.5C 625.571,347.73 614.404,335.064 603,322.5C 602.209,321.255 601.709,319.922 601.5,318.5C 656.559,218.722 711.392,118.722 766,18.5C 766.561,17.9781 767.228,17.6448 768,17.5C 904.218,91.358 1040.05,165.858 1175.5,241C 1159.69,269.447 1144.03,297.947 1128.5,326.5 Z"/></g>
<g><path style="opacity:0.993" fill="#d6ad39" d="M 601.5,318.5 C 601.709,319.922 602.209,321.255 603,322.5C 614.404,335.064 625.571,347.73 636.5,360.5C 653.8,382.099 671.8,403.099 690.5,423.5C 710.167,446.833 729.833,470.167 749.5,493.5C 744.167,493.5 738.833,493.5 733.5,493.5C 615.835,356.333 498.335,219 381,81.5C 367.053,64.9407 350.219,61.1074 330.5,70C 328.004,71.331 326.004,73.1644 324.5,75.5C 324.167,75.5 323.833,75.5 323.5,75.5C 321.141,72.1486 318.808,68.8153 316.5,65.5C 319.906,61.9517 323.906,59.1184 328.5,57C 347.441,49.9091 365.107,52.2424 381.5,64C 455.072,148.731 528.405,233.564 601.5,318.5 Z"/></g>
<g><path style="opacity:1" fill="#faca42" d="M 733.5,493.5 C 716.5,493.5 699.5,493.5 682.5,493.5C 563.167,354.167 443.833,214.833 324.5,75.5C 326.004,73.1644 328.004,71.331 330.5,70C 350.219,61.1074 367.053,64.9407 381,81.5C 498.335,219 615.835,356.333 733.5,493.5 Z"/></g>
<g><path style="opacity:1" fill="#2f2e2b" d="M 316.5,65.5 C 318.808,68.8153 321.141,72.1486 323.5,75.5C 305.345,90.7557 287.345,106.256 269.5,122C 267.854,123.821 265.854,124.987 263.5,125.5C 260.791,122.792 258.458,119.792 256.5,116.5C 275.907,98.7564 295.907,81.7564 316.5,65.5 Z"/></g>
<g><path style="opacity:1" fill="#333333" d="M 323.5,75.5 C 323.833,75.5 324.167,75.5 324.5,75.5C 443.833,214.833 563.167,354.167 682.5,493.5C 647.833,493.5 613.167,493.5 578.5,493.5C 473.845,370.847 368.845,248.514 263.5,126.5C 263.5,126.167 263.5,125.833 263.5,125.5C 265.854,124.987 267.854,123.821 269.5,122C 287.345,106.256 305.345,90.7557 323.5,75.5 Z"/></g>
<g><path style="opacity:0.994" fill="#d5ac3a" d="M 256.5,116.5 C 258.458,119.792 260.791,122.792 263.5,125.5C 263.5,125.833 263.5,126.167 263.5,126.5C 260.527,128.806 257.86,131.473 255.5,134.5C 255.167,134.5 254.833,134.5 254.5,134.5C 252.547,130.88 249.881,127.88 246.5,125.5C 249.415,122.041 252.748,119.041 256.5,116.5 Z"/></g>
<g><path style="opacity:1" fill="#d7d18d" d="M 246.5,125.5 C 249.881,127.88 252.547,130.88 254.5,134.5C 238.5,148.167 222.5,161.833 206.5,175.5C 203.139,173.105 200.472,170.105 198.5,166.5C 213.906,152.091 229.906,138.424 246.5,125.5 Z"/></g>
<g><path style="opacity:1" fill="#f8c943" d="M 263.5,126.5 C 368.845,248.514 473.845,370.847 578.5,493.5C 573.167,493.5 567.833,493.5 562.5,493.5C 460.404,373.647 358.07,253.981 255.5,134.5C 257.86,131.473 260.527,128.806 263.5,126.5 Z"/></g>
<g><path style="opacity:1" fill="#fbf5a7" d="M 254.5,134.5 C 254.833,134.5 255.167,134.5 255.5,134.5C 358.07,253.981 460.404,373.647 562.5,493.5C 554.5,493.5 546.5,493.5 538.5,493.5C 531.565,484.559 524.232,475.893 516.5,467.5C 507.647,474.764 498.98,482.264 490.5,490C 491.381,490.708 492.047,491.542 492.5,492.5C 488.03,493.486 483.363,493.819 478.5,493.5C 387.804,387.808 297.137,282.142 206.5,176.5C 206.5,176.167 206.5,175.833 206.5,175.5C 222.5,161.833 238.5,148.167 254.5,134.5 Z"/></g>
<g><path style="opacity:1" fill="#64bea5" d="M 959.5,529.5 C 929.277,501.98 893.61,489.98 852.5,493.5C 817.525,453.007 773.192,429.841 719.5,424C 709.839,423.5 700.172,423.334 690.5,423.5C 671.8,403.099 653.8,382.099 636.5,360.5C 667.027,304.614 697.694,248.78 728.5,193C 791.569,204.306 846.569,188.306 893.5,145C 894.5,144.333 895.5,144.333 896.5,145C 930.747,163.706 964.914,182.54 999,201.5C 998.011,209.445 997.011,217.445 996,225.5C 992.77,280.825 1010.27,328.325 1048.5,368C 1018.68,421.815 989.012,475.648 959.5,529.5 Z"/></g>
<g><path style="opacity:0.991" fill="#d6ad39" d="M 198.5,166.5 C 200.472,170.105 203.139,173.105 206.5,175.5C 206.5,175.833 206.5,176.167 206.5,176.5C 167.265,208.892 128.432,241.892 90,275.5C 76,293.167 76,310.833 90,328.5C 137.648,383.159 184.815,438.159 231.5,493.5C 226.167,493.5 220.833,493.5 215.5,493.5C 205.63,481.087 195.296,469.087 184.5,457.5C 180.511,452.179 176.178,447.179 171.5,442.5C 139.836,406 108.336,369.334 77,332.5C 61.1345,305.19 64.9678,281.023 88.5,260C 125.039,228.623 161.706,197.456 198.5,166.5 Z"/></g>
<g><path style="opacity:1" fill="#facb43" d="M 206.5,176.5 C 297.137,282.142 387.804,387.808 478.5,493.5C 457.5,493.5 436.5,493.5 415.5,493.5C 418.333,489.835 421.666,486.668 425.5,484C 402.684,456.851 379.517,430.018 356,403.5C 349.051,408.778 342.384,414.445 336,420.5C 335.333,421.5 335.333,422.5 336,423.5C 356.086,446.71 375.92,470.043 395.5,493.5C 388.167,493.5 380.833,493.5 373.5,493.5C 356.876,472.6 339.542,452.266 321.5,432.5C 314.352,438.481 307.352,444.647 300.5,451C 312.711,465.039 324.711,479.206 336.5,493.5C 328.5,493.5 320.5,493.5 312.5,493.5C 304.176,483.012 295.343,473.012 286,463.5C 278.708,468.957 271.875,474.957 265.5,481.5C 268.549,485.537 271.549,489.537 274.5,493.5C 260.167,493.5 245.833,493.5 231.5,493.5C 184.815,438.159 137.648,383.159 90,328.5C 76,310.833 76,293.167 90,275.5C 128.432,241.892 167.265,208.892 206.5,176.5 Z"/></g>
<g><path style="opacity:1" fill="#faf4a6" d="M 183.5,401.5 C 192.975,395.881 201.809,389.215 210,381.5C 210.767,377.406 210.434,373.406 209,369.5C 204.409,359.982 200.076,350.315 196,340.5C 195.021,336.705 195.854,333.372 198.5,330.5C 211.751,330.358 223.751,326.525 234.5,319C 247.287,306.338 248.787,292.505 239,277.5C 228.323,266.04 215.823,263.54 201.5,270C 188.581,278.658 181.414,290.824 180,306.5C 177.689,308.11 175.189,309.443 172.5,310.5C 172.167,311.167 171.833,311.833 171.5,312.5C 172.419,318.856 173.419,325.189 174.5,331.5C 167.346,332.064 160.346,333.397 153.5,335.5C 153.5,339.833 153.5,344.167 153.5,348.5C 147.075,350.213 140.742,352.213 134.5,354.5C 133.5,354.167 132.833,353.5 132.5,352.5C 138.643,341.554 144.809,330.554 151,319.5C 157.396,316.144 163.896,312.978 170.5,310C 162.156,305.163 154.156,299.83 146.5,294C 142.393,291.28 138.06,289.113 133.5,287.5C 131.209,287.622 129.209,288.455 127.5,290C 120.329,296.338 113.329,302.838 106.5,309.5C 106.67,298.659 111.004,289.825 119.5,283C 140.5,265.333 161.5,247.667 182.5,230C 194.469,224.926 206.136,225.593 217.5,232C 239.458,255.619 260.292,280.119 280,305.5C 284.378,317.723 282.711,329.057 275,339.5C 253.129,359.04 230.962,378.207 208.5,397C 204.581,398.862 200.581,400.529 196.5,402C 191.98,402.814 187.646,402.647 183.5,401.5 Z"/></g>
<g><path style="opacity:1" fill="#03a678" d="M 895.5,227.5 C 915.157,226.242 926.99,235.242 931,254.5C 931.836,312.993 909.003,359.826 862.5,395C 856.512,398.494 850.179,401.161 843.5,403C 830.996,406.055 820.829,402.555 813,392.5C 806.52,379.907 804.186,366.574 806,352.5C 813.682,303.268 837.515,264.102 877.5,235C 883.485,232.166 889.485,229.666 895.5,227.5 Z"/></g>
<g><path style="opacity:1" fill="#343433" d="M 183.5,401.5 C 177.535,400.351 172.202,397.851 167.5,394C 160.998,386 154.331,378.167 147.5,370.5C 159.658,365.276 171.825,359.942 184,354.5C 187.5,349 191,343.5 194.5,338C 187.835,335.722 181.168,333.556 174.5,331.5C 173.419,325.189 172.419,318.856 171.5,312.5C 171.833,311.833 172.167,311.167 172.5,310.5C 175.189,309.443 177.689,308.11 180,306.5C 181.414,290.824 188.581,278.658 201.5,270C 215.823,263.54 228.323,266.04 239,277.5C 248.787,292.505 247.287,306.338 234.5,319C 223.751,326.525 211.751,330.358 198.5,330.5C 195.854,333.372 195.021,336.705 196,340.5C 200.076,350.315 204.409,359.982 209,369.5C 210.434,373.406 210.767,377.406 210,381.5C 201.809,389.215 192.975,395.881 183.5,401.5 Z"/></g>
<g><path style="opacity:1" fill="#343434" d="M 132.5,352.5 C 125.684,344.906 118.85,337.239 112,329.5C 108.226,323.347 106.393,316.681 106.5,309.5C 113.329,302.838 120.329,296.338 127.5,290C 129.209,288.455 131.209,287.622 133.5,287.5C 138.06,289.113 142.393,291.28 146.5,294C 154.156,299.83 162.156,305.163 170.5,310C 163.896,312.978 157.396,316.144 151,319.5C 144.809,330.554 138.643,341.554 132.5,352.5 Z"/></g>
<g><path style="opacity:1" fill="#038d66" d="M 1128.5,326.5 C 1169.3,367.466 1209.97,408.633 1250.5,450C 1187.6,512.396 1124.6,574.563 1061.5,636.5C 1054.56,641.775 1048.22,647.775 1042.5,654.5C 1027.47,669.194 1012.47,683.861 997.5,698.5C 996.502,675.339 996.169,652.006 996.5,628.5C 1028.13,598.036 1059.63,567.369 1091,536.5C 1091.67,535.5 1091.67,534.5 1091,533.5C 1074.55,501.061 1068.05,466.728 1071.5,430.5C 1090,395.505 1109,360.838 1128.5,326.5 Z"/></g>
<g><path style="opacity:1" fill="#383836" d="M 174.5,331.5 C 172.189,337.465 169.855,343.465 167.5,349.5C 162.833,350.167 158.167,350.833 153.5,351.5C 150.836,356.802 147.836,361.802 144.5,366.5C 140.797,362.798 137.463,358.798 134.5,354.5C 140.742,352.213 147.075,350.213 153.5,348.5C 153.5,344.167 153.5,339.833 153.5,335.5C 160.346,333.397 167.346,332.064 174.5,331.5 Z"/></g>
<g><path style="opacity:1" fill="#f7f1a5" d="M 174.5,331.5 C 181.168,333.556 187.835,335.722 194.5,338C 191,343.5 187.5,349 184,354.5C 171.825,359.942 159.658,365.276 147.5,370.5C 146.512,369.205 145.512,367.872 144.5,366.5C 147.836,361.802 150.836,356.802 153.5,351.5C 158.167,350.833 162.833,350.167 167.5,349.5C 169.855,343.465 172.189,337.465 174.5,331.5 Z"/></g>
<g><path style="opacity:1" fill="#343433" d="M 450.5,393.5 C 453.263,393.744 455.429,395.077 457,397.5C 473.792,417.961 490.958,438.127 508.5,458C 500.204,464.627 492.204,471.627 484.5,479C 483.056,479.781 481.723,479.614 480.5,478.5C 462.5,457.5 444.5,436.5 426.5,415.5C 434.532,408.159 442.532,400.826 450.5,393.5 Z"/></g>
<g><path style="opacity:1" fill="#fcf5a7" d="M 415.5,493.5 C 408.833,493.5 402.167,493.5 395.5,493.5C 375.92,470.043 356.086,446.71 336,423.5C 335.333,422.5 335.333,421.5 336,420.5C 342.384,414.445 349.051,408.778 356,403.5C 379.517,430.018 402.684,456.851 425.5,484C 421.666,486.668 418.333,489.835 415.5,493.5 Z"/></g>
<g><path style="opacity:1" fill="#05a678" d="M 690.5,423.5 C 700.172,423.334 709.839,423.5 719.5,424C 773.192,429.841 817.525,453.007 852.5,493.5C 818.167,493.5 783.833,493.5 749.5,493.5C 729.833,470.167 710.167,446.833 690.5,423.5 Z"/></g>
<g><path style="opacity:1" fill="#55a28c" d="M 1071.5,430.5 C 1068.05,466.728 1074.55,501.061 1091,533.5C 1091.67,534.5 1091.67,535.5 1091,536.5C 1059.63,567.369 1028.13,598.036 996.5,628.5C 996.823,621.978 996.49,615.645 995.5,609.5C 995.109,598.816 993.109,588.483 989.5,578.5C 1016.83,529.167 1044.17,479.833 1071.5,430.5 Z"/></g>
<g><path style="opacity:1" fill="#fcf5a7" d="M 373.5,493.5 C 361.167,493.5 348.833,493.5 336.5,493.5C 324.711,479.206 312.711,465.039 300.5,451C 307.352,444.647 314.352,438.481 321.5,432.5C 339.542,452.266 356.876,472.6 373.5,493.5 Z"/></g>
<g><path style="opacity:1" fill="#744226" d="M 171.5,442.5 C 176.178,447.179 180.511,452.179 184.5,457.5C 164.672,466.322 147.672,478.988 133.5,495.5C 113.258,500.121 94.9243,508.788 78.5,521.5C 98.2335,502.119 118.234,482.952 138.5,464C 148.573,455.43 159.573,448.263 171.5,442.5 Z"/></g>
<g><path style="opacity:1" fill="#4f2d1a" d="M 184.5,457.5 C 195.296,469.087 205.63,481.087 215.5,493.5C 191.498,493.333 167.498,493.5 143.5,494C 140.243,495.043 136.91,495.543 133.5,495.5C 147.672,478.988 164.672,466.322 184.5,457.5 Z"/></g>
<g><path style="opacity:1" fill="#fcf5a6" d="M 312.5,493.5 C 299.833,493.5 287.167,493.5 274.5,493.5C 271.549,489.537 268.549,485.537 265.5,481.5C 271.875,474.957 278.708,468.957 286,463.5C 295.343,473.012 304.176,483.012 312.5,493.5 Z"/></g>
<g><path style="opacity:1" fill="#343434" d="M 538.5,493.5 C 523.089,493.817 507.755,493.483 492.5,492.5C 492.047,491.542 491.381,490.708 490.5,490C 498.98,482.264 507.647,474.764 516.5,467.5C 524.232,475.893 531.565,484.559 538.5,493.5 Z"/></g>
<g><path style="opacity:0.998" fill="#8a583b" d="M 492.5,492.5 C 507.755,493.483 523.089,493.817 538.5,493.5C 546.5,493.5 554.5,493.5 562.5,493.5C 567.833,493.5 573.167,493.5 578.5,493.5C 613.167,493.5 647.833,493.5 682.5,493.5C 699.5,493.5 716.5,493.5 733.5,493.5C 738.833,493.5 744.167,493.5 749.5,493.5C 783.833,493.5 818.167,493.5 852.5,493.5C 893.61,489.98 929.277,501.98 959.5,529.5C 973.301,543.422 983.301,559.755 989.5,578.5C 993.109,588.483 995.109,598.816 995.5,609.5C 995.5,639.5 995.5,669.5 995.5,699.5C 995.5,706.833 995.5,714.167 995.5,721.5C 985.5,721.5 975.5,721.5 965.5,721.5C 965.666,713.826 965.5,706.159 965,698.5C 962,695.833 959,695.833 956,698.5C 955.5,706.159 955.334,713.826 955.5,721.5C 902.832,721.333 850.166,721.5 797.5,722C 759.531,728.969 737.364,751.469 731,789.5C 730.333,811.167 730.333,832.833 731,854.5C 739.098,892.816 762.598,914.649 801.5,920C 866.166,920.5 930.832,920.667 995.5,920.5C 995.5,957.833 995.5,995.167 995.5,1032.5C 995.051,1038.53 994.385,1044.53 993.5,1050.5C 990.73,1059.48 987.73,1068.48 984.5,1077.5C 963.103,1119.05 929.103,1142.55 882.5,1148C 637.167,1148.67 391.833,1148.67 146.5,1148C 103.751,1142.88 71.2509,1122.04 49,1085.5C 39.1521,1067.78 33.8188,1048.78 33,1028.5C 32.3333,889.833 32.3333,751.167 33,612.5C 35.429,575.642 50.5957,545.308 78.5,521.5C 94.9243,508.788 113.258,500.121 133.5,495.5C 136.91,495.543 140.243,495.043 143.5,494C 167.498,493.5 191.498,493.333 215.5,493.5C 220.833,493.5 226.167,493.5 231.5,493.5C 245.833,493.5 260.167,493.5 274.5,493.5C 287.167,493.5 299.833,493.5 312.5,493.5C 320.5,493.5 328.5,493.5 336.5,493.5C 348.833,493.5 361.167,493.5 373.5,493.5C 380.833,493.5 388.167,493.5 395.5,493.5C 402.167,493.5 408.833,493.5 415.5,493.5C 436.5,493.5 457.5,493.5 478.5,493.5C 483.363,493.819 488.03,493.486 492.5,492.5 Z"/></g>
<g><path style="opacity:1" fill="#bc9985" d="M 165.5,524.5 C 174.173,524.334 182.84,524.5 191.5,525C 194.311,528.294 193.978,531.294 190.5,534C 182.167,534.667 173.833,534.667 165.5,534C 162.888,530.836 162.888,527.669 165.5,524.5 Z"/></g>
<g><path style="opacity:1" fill="#bc9884" d="M 222.5,524.5 C 231.506,524.334 240.506,524.5 249.5,525C 252.405,528.374 252.072,531.374 248.5,534C 240.167,534.667 231.833,534.667 223.5,534C 219.846,531.209 219.513,528.043 222.5,524.5 Z"/></g>
<g><path style="opacity:1" fill="#bc9985" d="M 280.5,524.5 C 289.173,524.334 297.84,524.5 306.5,525C 309.167,528 309.167,531 306.5,534C 298.167,534.667 289.833,534.667 281.5,534C 277.956,531.127 277.623,527.96 280.5,524.5 Z"/></g>
<g><path style="opacity:1" fill="#bc9985" d="M 338.5,524.5 C 347.173,524.334 355.84,524.5 364.5,525C 367.418,528.472 367.085,531.472 363.5,534C 355.5,534.667 347.5,534.667 339.5,534C 335.956,531.127 335.623,527.96 338.5,524.5 Z"/></g>
<g><path style="opacity:1" fill="#bc9985" d="M 396.5,524.5 C 405.173,524.334 413.84,524.5 422.5,525C 425.418,528.472 425.085,531.472 421.5,534C 413.5,534.667 405.5,534.667 397.5,534C 393.968,531.172 393.634,528.005 396.5,524.5 Z"/></g>
<g><path style="opacity:1" fill="#bc9985" d="M 454.5,524.5 C 463.173,524.334 471.84,524.5 480.5,525C 483.418,528.472 483.085,531.472 479.5,534C 471.167,534.667 462.833,534.667 454.5,534C 451.888,530.836 451.888,527.669 454.5,524.5 Z"/></g>
<g><path style="opacity:1" fill="#bc9985" d="M 512.5,524.5 C 521.173,524.334 529.84,524.5 538.5,525C 541.299,528.339 540.966,531.339 537.5,534C 529.167,534.667 520.833,534.667 512.5,534C 509.888,530.836 509.888,527.669 512.5,524.5 Z"/></g>
<g><path style="opacity:1" fill="#bc9985" d="M 570.5,524.5 C 579.173,524.334 587.84,524.5 596.5,525C 599.299,528.339 598.966,531.339 595.5,534C 587.167,534.667 578.833,534.667 570.5,534C 567.888,530.836 567.888,527.669 570.5,524.5 Z"/></g>
<g><path style="opacity:1" fill="#bc9985" d="M 628.5,524.5 C 637.173,524.334 645.84,524.5 654.5,525C 657.311,528.294 656.978,531.294 653.5,534C 645.167,534.667 636.833,534.667 628.5,534C 625.888,530.836 625.888,527.669 628.5,524.5 Z"/></g>
<g><path style="opacity:1" fill="#bc9884" d="M 686.5,524.5 C 695.173,524.334 703.84,524.5 712.5,525C 715.405,528.374 715.072,531.374 711.5,534C 703.167,534.667 694.833,534.667 686.5,534C 682.599,530.792 682.599,527.626 686.5,524.5 Z"/></g>
<g><path style="opacity:1" fill="#bc9884" d="M 743.5,524.5 C 752.506,524.334 761.506,524.5 770.5,525C 773.405,528.374 773.072,531.374 769.5,534C 761.167,534.667 752.833,534.667 744.5,534C 740.846,531.209 740.513,528.043 743.5,524.5 Z"/></g>
<g><path style="opacity:1" fill="#bc9985" d="M 801.5,524.5 C 810.173,524.334 818.84,524.5 827.5,525C 830.167,528 830.167,531 827.5,534C 819.167,534.667 810.833,534.667 802.5,534C 798.956,531.127 798.623,527.96 801.5,524.5 Z"/></g>
<g><path style="opacity:1" fill="#bb9783" d="M 859.5,524.5 C 867.84,524.334 876.173,524.5 884.5,525C 885.416,525.374 886.25,525.874 887,526.5C 889.196,532.741 887.03,535.741 880.5,535.5C 873.847,534.834 867.181,534.334 860.5,534C 856.968,531.172 856.634,528.005 859.5,524.5 Z"/></g>
<g><path style="opacity:1" fill="#bb9883" d="M 127.5,528.5 C 135.49,528.086 137.49,531.253 133.5,538C 126.157,540.755 118.99,543.921 112,547.5C 106.706,544.695 106.206,541.195 110.5,537C 116.122,533.828 121.789,530.995 127.5,528.5 Z"/></g>
<g><path style="opacity:1" fill="#bb9783" d="M 915.5,537.5 C 917.989,537.298 920.323,537.798 922.5,539C 927.956,542.787 933.123,546.954 938,551.5C 940.219,557.93 938.053,560.763 931.5,560C 926.789,555.62 921.789,551.62 916.5,548C 912.935,544.784 912.602,541.284 915.5,537.5 Z"/></g>
<g><path style="opacity:1" fill="#bb9783" d="M 82.5,562.5 C 87.8351,562.005 90.3351,564.338 90,569.5C 85.9925,575.512 82.4925,581.845 79.5,588.5C 73.0466,591.849 70.2132,589.849 71,582.5C 74.0731,575.348 77.9065,568.682 82.5,562.5 Z"/></g>
<g><path style="opacity:1" fill="#bb9783" d="M 951.5,581.5 C 955.49,580.616 958.323,581.949 960,585.5C 962.208,591.5 963.708,597.666 964.5,604C 964.739,609.754 962.072,611.754 956.5,610C 956,609.5 955.5,609 955,608.5C 953.789,600.99 951.956,593.657 949.5,586.5C 949.437,584.486 950.103,582.819 951.5,581.5 Z"/></g>
<g><path style="opacity:1" fill="#b99580" d="M 67.5,616.5 C 70.0991,616.549 72.2658,617.549 74,619.5C 74.6667,627.833 74.6667,636.167 74,644.5C 70.6667,648.5 67.3333,648.5 64,644.5C 63.3333,636.5 63.3333,628.5 64,620.5C 64.6897,618.65 65.8564,617.316 67.5,616.5 Z"/></g>
<g><path style="opacity:1" fill="#6b6648" d="M 995.5,609.5 C 996.49,615.645 996.823,621.978 996.5,628.5C 996.169,652.006 996.502,675.339 997.5,698.5C 997.5,699.167 997.167,699.5 996.5,699.5C 996.167,699.5 995.833,699.5 995.5,699.5C 995.5,669.5 995.5,639.5 995.5,609.5 Z"/></g>
<g><path style="opacity:0.998" fill="#754327" d="M 1061.5,636.5 C 1061.5,664.833 1061.5,693.167 1061.5,721.5C 1073.72,723.054 1080.05,730.054 1080.5,742.5C 1075.49,742.334 1070.49,742.501 1065.5,743C 1063.99,745.916 1064.32,748.582 1066.5,751C 1071.25,751.773 1075.92,751.607 1080.5,750.5C 1080.5,797.167 1080.5,843.833 1080.5,890.5C 1071.16,890.334 1061.83,890.5 1052.5,891C 1049.83,893.667 1049.83,896.333 1052.5,899C 1061.83,899.5 1071.16,899.666 1080.5,899.5C 1079.41,911.252 1073.08,918.252 1061.5,920.5C 1061.83,939.859 1061.33,959.192 1060,978.5C 1052.28,1025.02 1027.11,1058.02 984.5,1077.5C 987.73,1068.48 990.73,1059.48 993.5,1050.5C 993.435,1050.94 993.601,1051.27 994,1051.5C 1021.06,1032.76 1037.06,1007.1 1042,974.5C 1042.5,956.17 1042.67,937.836 1042.5,919.5C 1027.17,919.5 1011.83,919.5 996.5,919.5C 996.832,957.337 996.498,995.004 995.5,1032.5C 995.5,995.167 995.5,957.833 995.5,920.5C 930.832,920.667 866.166,920.5 801.5,920C 762.598,914.649 739.098,892.816 731,854.5C 730.333,832.833 730.333,811.167 731,789.5C 737.364,751.469 759.531,728.969 797.5,722C 850.166,721.5 902.832,721.333 955.5,721.5C 958.833,721.5 962.167,721.5 965.5,721.5C 975.5,721.5 985.5,721.5 995.5,721.5C 995.5,714.167 995.5,706.833 995.5,699.5C 995.833,699.5 996.167,699.5 996.5,699.5C 996.5,706.833 996.5,714.167 996.5,721.5C 1011.83,721.5 1027.17,721.5 1042.5,721.5C 1042.5,699.167 1042.5,676.833 1042.5,654.5C 1048.22,647.775 1054.56,641.775 1061.5,636.5 Z"/></g>
<g><path style="opacity:1" fill="#bc9985" d="M 957.5,638.5 C 960.365,638.055 962.865,638.722 965,640.5C 965.667,648.833 965.667,657.167 965,665.5C 962.472,669.085 959.472,669.418 956,666.5C 955.333,657.833 955.333,649.167 956,640.5C 956.717,639.956 957.217,639.289 957.5,638.5 Z"/></g>
<g><path style="opacity:1" fill="#4e2d1a" d="M 1042.5,654.5 C 1042.5,676.833 1042.5,699.167 1042.5,721.5C 1027.17,721.5 1011.83,721.5 996.5,721.5C 996.5,714.167 996.5,706.833 996.5,699.5C 997.167,699.5 997.5,699.167 997.5,698.5C 1012.47,683.861 1027.47,669.194 1042.5,654.5 Z"/></g>
<g><path style="opacity:1" fill="#b99580" d="M 67.5,674.5 C 70.3245,674.081 72.4912,675.081 74,677.5C 74.6667,685.5 74.6667,693.5 74,701.5C 71.1765,706.395 67.8432,706.729 64,702.5C 63.3333,694.167 63.3333,685.833 64,677.5C 65.1451,676.364 66.3117,675.364 67.5,674.5 Z"/></g>
<g><path style="opacity:1" fill="#bc9985" d="M 965.5,721.5 C 962.167,721.5 958.833,721.5 955.5,721.5C 955.334,713.826 955.5,706.159 956,698.5C 959,695.833 962,695.833 965,698.5C 965.5,706.159 965.666,713.826 965.5,721.5 Z"/></g>
<g><path style="opacity:1" fill="#b99580" d="M 66.5,732.5 C 69.6516,731.959 72.1516,732.959 74,735.5C 74.6667,743.833 74.6667,752.167 74,760.5C 70.2552,764.566 66.9218,764.233 64,759.5C 63.3333,751.5 63.3333,743.5 64,735.5C 65.045,734.627 65.8783,733.627 66.5,732.5 Z"/></g>
<g><path style="opacity:1" fill="#ba9682" d="M 801.5,742.5 C 811.172,742.334 820.839,742.5 830.5,743C 833.265,745.966 832.932,748.633 829.5,751C 820.5,751.667 811.5,751.667 802.5,751C 799.001,748.514 798.668,745.681 801.5,742.5 Z"/></g>
<g><path style="opacity:1" fill="#ba9783" d="M 854.5,742.5 C 864.172,742.334 873.839,742.5 883.5,743C 885.013,745.916 884.68,748.582 882.5,751C 873.5,751.667 864.5,751.667 855.5,751C 851.868,748.653 851.535,745.82 854.5,742.5 Z"/></g>
<g><path style="opacity:1" fill="#ba9782" d="M 907.5,742.5 C 917.172,742.334 926.839,742.5 936.5,743C 938.013,745.916 937.68,748.582 935.5,751C 926.167,751.667 916.833,751.667 907.5,751C 904.899,748.17 904.899,745.337 907.5,742.5 Z"/></g>
<g><path style="opacity:1" fill="#ba9782" d="M 959.5,742.5 C 969.506,742.334 979.506,742.5 989.5,743C 991.013,745.916 990.68,748.582 988.5,751C 979.167,751.667 969.833,751.667 960.5,751C 958.265,748.415 957.931,745.582 959.5,742.5 Z"/></g>
<g><path style="opacity:1" fill="#ba9782" d="M 1012.5,742.5 C 1022.17,742.334 1031.84,742.5 1041.5,743C 1044.17,745.667 1044.17,748.333 1041.5,751C 1032.17,751.667 1022.83,751.667 1013.5,751C 1011.26,748.415 1010.93,745.582 1012.5,742.5 Z"/></g>
<g><path style="opacity:1" fill="#b99580" d="M 1080.5,742.5 C 1080.5,745.167 1080.5,747.833 1080.5,750.5C 1075.92,751.607 1071.25,751.773 1066.5,751C 1064.32,748.582 1063.99,745.916 1065.5,743C 1070.49,742.501 1075.49,742.334 1080.5,742.5 Z"/></g>
<g><path style="opacity:1" fill="#b99681" d="M 774.5,751.5 C 779.325,751.488 781.491,753.821 781,758.5C 777.478,761.266 774.145,764.266 771,767.5C 768.623,771.088 766.123,774.588 763.5,778C 756.309,777.771 754.809,774.604 759,768.5C 763.323,762.013 768.49,756.346 774.5,751.5 Z"/></g>
<g><path style="opacity:1" fill="#4f2d1a" d="M 827.5,774.5 C 851.646,773.482 868.146,784.149 877,806.5C 881.73,828.662 874.896,846.162 856.5,859C 832.716,869.913 812.549,865.413 796,845.5C 781.919,818.995 787.086,797.162 811.5,780C 816.74,777.534 822.073,775.7 827.5,774.5 Z"/></g>
<g><path style="opacity:1" fill="#b99580" d="M 66.5,790.5 C 69.6516,789.959 72.1516,790.959 74,793.5C 74.6667,801.5 74.6667,809.5 74,817.5C 70.6667,822.833 67.3333,822.833 64,817.5C 63.3333,809.5 63.3333,801.5 64,793.5C 65.045,792.627 65.8783,791.627 66.5,790.5 Z"/></g>
<g><path style="opacity:1" fill="#b6917d" d="M 753.5,797.5 C 756.325,797.081 758.491,798.081 760,800.5C 760.667,809.5 760.667,818.5 760,827.5C 757,831.5 754,831.5 751,827.5C 750.333,818.5 750.333,809.5 751,800.5C 752.045,799.627 752.878,798.627 753.5,797.5 Z"/></g>
<g><path style="opacity:1" fill="#b99581" d="M 66.5,848.5 C 69.6516,847.959 72.1516,848.959 74,851.5C 74.6667,859.5 74.6667,867.5 74,875.5C 73.6258,876.416 73.1258,877.25 72.5,878C 70.1667,878.667 67.8333,878.667 65.5,878C 64.8742,877.25 64.3742,876.416 64,875.5C 63.3333,867.5 63.3333,859.5 64,851.5C 65.045,850.627 65.8783,849.627 66.5,848.5 Z"/></g>
<g><path style="opacity:1" fill="#ba9682" d="M 754.5,850.5 C 757.044,850.104 759.211,850.771 761,852.5C 762.467,860.432 765.8,867.432 771,873.5C 772.143,878.859 769.976,881.026 764.5,880C 757.473,872.119 753.639,862.952 753,852.5C 753.717,851.956 754.217,851.289 754.5,850.5 Z"/></g>
<g><path style="opacity:1" fill="#bb9883" d="M 787.5,888.5 C 797.094,889.923 806.761,890.756 816.5,891C 819.399,894.156 819.065,896.822 815.5,899C 805.628,900.364 796.128,899.198 787,895.5C 786.297,893.071 786.463,890.738 787.5,888.5 Z"/></g>
<g><path style="opacity:1" fill="#bb9884" d="M 840.5,890.5 C 850.172,890.334 859.839,890.5 869.5,891C 872.034,893.587 872.034,896.253 869.5,899C 860.167,899.667 850.833,899.667 841.5,899C 837.874,896.603 837.54,893.769 840.5,890.5 Z"/></g>
<g><path style="opacity:1" fill="#bb9884" d="M 893.5,890.5 C 902.839,890.334 912.173,890.5 921.5,891C 925.386,893.526 925.386,896.192 921.5,899C 912.5,899.667 903.5,899.667 894.5,899C 890.868,896.653 890.535,893.82 893.5,890.5 Z"/></g>
<g><path style="opacity:1" fill="#bb9884" d="M 946.5,890.5 C 956.172,890.334 965.839,890.5 975.5,891C 978.353,894.096 978.02,896.763 974.5,899C 965.167,899.667 955.833,899.667 946.5,899C 943.899,896.17 943.899,893.337 946.5,890.5 Z"/></g>
<g><path style="opacity:1" fill="#bb9884" d="M 999.5,890.5 C 1008.84,890.334 1018.17,890.5 1027.5,891C 1031.48,893.617 1031.48,896.284 1027.5,899C 1018.17,899.667 1008.83,899.667 999.5,899C 996.899,896.17 996.899,893.337 999.5,890.5 Z"/></g>
<g><path style="opacity:1" fill="#bb9883" d="M 1080.5,890.5 C 1080.5,893.5 1080.5,896.5 1080.5,899.5C 1071.16,899.666 1061.83,899.5 1052.5,899C 1049.83,896.333 1049.83,893.667 1052.5,891C 1061.83,890.5 1071.16,890.334 1080.5,890.5 Z"/></g>
<g><path style="opacity:1" fill="#b99581" d="M 66.5,906.5 C 69.6516,905.959 72.1516,906.959 74,909.5C 74.6667,917.5 74.6667,925.5 74,933.5C 70.8411,937.436 67.5078,937.436 64,933.5C 63.3333,925.5 63.3333,917.5 64,909.5C 65.045,908.627 65.8783,907.627 66.5,906.5 Z"/></g>
<g><path style="opacity:1" fill="#4f2d1a" d="M 993.5,1050.5 C 994.385,1044.53 995.051,1038.53 995.5,1032.5C 996.498,995.004 996.832,957.337 996.5,919.5C 1011.83,919.5 1027.17,919.5 1042.5,919.5C 1042.67,937.836 1042.5,956.17 1042,974.5C 1037.06,1007.1 1021.06,1032.76 994,1051.5C 993.601,1051.27 993.435,1050.94 993.5,1050.5 Z"/></g>
<g><path style="opacity:1" fill="#bc9984" d="M 958.5,927.5 C 961.325,927.081 963.491,928.081 965,930.5C 965.667,938.833 965.667,947.167 965,955.5C 962,959.5 959,959.5 956,955.5C 955.333,947.167 955.333,938.833 956,930.5C 956.698,929.309 957.531,928.309 958.5,927.5 Z"/></g>
<g><path style="opacity:1" fill="#ba9681" d="M 66.5,964.5 C 69.695,963.961 72.195,964.961 74,967.5C 74.6667,975.5 74.6667,983.5 74,991.5C 70.6667,995.5 67.3333,995.5 64,991.5C 63.3333,983.5 63.3333,975.5 64,967.5C 65.045,966.627 65.8783,965.627 66.5,964.5 Z"/></g>
<g><path style="opacity:1" fill="#bc9985" d="M 957.5,985.5 C 960.695,984.961 963.195,985.961 965,988.5C 965.667,996.833 965.667,1005.17 965,1013.5C 962,1016.17 959,1016.17 956,1013.5C 955.333,1004.83 955.333,996.167 956,987.5C 956.717,986.956 957.217,986.289 957.5,985.5 Z"/></g>
<g><path style="opacity:1" fill="#bb9884" d="M 66.5,1022.5 C 68.5273,1022.34 70.5273,1022.5 72.5,1023C 73.1258,1023.75 73.6258,1024.58 74,1025.5C 74.3061,1032.67 75.4727,1039.67 77.5,1046.5C 76.3451,1052.58 73.1784,1053.91 68,1050.5C 64.9217,1042.07 63.9217,1033.4 65,1024.5C 65.7172,1023.96 66.2172,1023.29 66.5,1022.5 Z"/></g>
<g><path style="opacity:1" fill="#bb9783" d="M 953.5,1043.5 C 956.365,1043.05 958.865,1043.72 961,1045.5C 960.572,1054.45 957.906,1062.79 953,1070.5C 946.547,1073.29 943.547,1071.29 944,1064.5C 947.658,1057.68 950.825,1050.68 953.5,1043.5 Z"/></g>
<g><path style="opacity:1" fill="#bb9783" d="M 86.5,1075.5 C 88.5273,1075.34 90.5273,1075.5 92.5,1076C 97.6983,1081.53 103.198,1086.7 109,1091.5C 109.593,1098.25 106.76,1100.41 100.5,1098C 93.6885,1093.2 88.3552,1087.2 84.5,1080C 84.5186,1078.17 85.1852,1076.67 86.5,1075.5 Z"/></g>
<g><path style="opacity:1" fill="#bb9783" d="M 921.5,1089.5 C 927.326,1089.16 929.826,1091.82 929,1097.5C 921.827,1104.51 913.327,1108.34 903.5,1109C 901.604,1107.19 901.104,1105.03 902,1102.5C 908.928,1098.73 915.428,1094.39 921.5,1089.5 Z"/></g>
<g><path style="opacity:1" fill="#bc9884" d="M 134.5,1105.5 C 149.119,1106.91 163.786,1107.75 178.5,1108C 181.299,1111.34 180.966,1114.34 177.5,1117C 164.799,1117.82 152.132,1117.49 139.5,1116C 133.596,1114.66 131.929,1111.16 134.5,1105.5 Z"/></g>
<g><path style="opacity:1" fill="#bc9985" d="M 210.5,1107.5 C 219.173,1107.33 227.84,1107.5 236.5,1108C 239.299,1111.34 238.966,1114.34 235.5,1117C 227.167,1117.67 218.833,1117.67 210.5,1117C 207.888,1113.84 207.888,1110.67 210.5,1107.5 Z"/></g>
<g><path style="opacity:1" fill="#bc9985" d="M 268.5,1107.5 C 277.173,1107.33 285.84,1107.5 294.5,1108C 297.311,1111.29 296.978,1114.29 293.5,1117C 285.167,1117.67 276.833,1117.67 268.5,1117C 265.888,1113.84 265.888,1110.67 268.5,1107.5 Z"/></g>
<g><path style="opacity:1" fill="#bc9884" d="M 325.5,1107.5 C 334.506,1107.33 343.506,1107.5 352.5,1108C 355.405,1111.37 355.072,1114.37 351.5,1117C 343.167,1117.67 334.833,1117.67 326.5,1117C 322.846,1114.21 322.513,1111.04 325.5,1107.5 Z"/></g>
<g><path style="opacity:1" fill="#bc9884" d="M 383.5,1107.5 C 392.173,1107.33 400.84,1107.5 409.5,1108C 413.482,1110.95 413.482,1113.95 409.5,1117C 401.167,1117.67 392.833,1117.67 384.5,1117C 380.846,1114.21 380.513,1111.04 383.5,1107.5 Z"/></g>
<g><path style="opacity:1" fill="#bc9985" d="M 441.5,1107.5 C 450.173,1107.33 458.84,1107.5 467.5,1108C 470.167,1111 470.167,1114 467.5,1117C 459.167,1117.67 450.833,1117.67 442.5,1117C 438.956,1114.13 438.623,1110.96 441.5,1107.5 Z"/></g>
<g><path style="opacity:1" fill="#bc9985" d="M 499.5,1107.5 C 508.173,1107.33 516.84,1107.5 525.5,1108C 528.418,1111.47 528.085,1114.47 524.5,1117C 516.5,1117.67 508.5,1117.67 500.5,1117C 496.968,1114.17 496.634,1111 499.5,1107.5 Z"/></g>
<g><path style="opacity:1" fill="#bc9985" d="M 557.5,1107.5 C 566.173,1107.33 574.84,1107.5 583.5,1108C 586.418,1111.47 586.085,1114.47 582.5,1117C 574.167,1117.67 565.833,1117.67 557.5,1117C 554.875,1113.76 554.875,1110.6 557.5,1107.5 Z"/></g>
<g><path style="opacity:1" fill="#bc9985" d="M 615.5,1107.5 C 624.173,1107.33 632.84,1107.5 641.5,1108C 644.418,1111.47 644.085,1114.47 640.5,1117C 632.5,1117.67 624.5,1117.67 616.5,1117C 612.86,1114.3 612.527,1111.13 615.5,1107.5 Z"/></g>
<g><path style="opacity:1" fill="#bc9985" d="M 673.5,1107.5 C 682.173,1107.33 690.84,1107.5 699.5,1108C 702.299,1111.34 701.966,1114.34 698.5,1117C 690.167,1117.67 681.833,1117.67 673.5,1117C 670.888,1113.84 670.888,1110.67 673.5,1107.5 Z"/></g>
<g><path style="opacity:1" fill="#bc9985" d="M 731.5,1107.5 C 740.173,1107.33 748.84,1107.5 757.5,1108C 760.311,1111.29 759.978,1114.29 756.5,1117C 748.167,1117.67 739.833,1117.67 731.5,1117C 728.888,1113.84 728.888,1110.67 731.5,1107.5 Z"/></g>
<g><path style="opacity:1" fill="#bc9985" d="M 789.5,1107.5 C 798.173,1107.33 806.84,1107.5 815.5,1108C 818.311,1111.29 817.978,1114.29 814.5,1117C 806.167,1117.67 797.833,1117.67 789.5,1117C 786.888,1113.84 786.888,1110.67 789.5,1107.5 Z"/></g>
<g><path style="opacity:1" fill="#bc9884" d="M 846.5,1107.5 C 855.506,1107.33 864.506,1107.5 873.5,1108C 876.405,1111.37 876.072,1114.37 872.5,1117C 864.167,1117.67 855.833,1117.67 847.5,1117C 843.846,1114.21 843.513,1111.04 846.5,1107.5 Z"/></g>
</svg>
